%TF.GenerationSoftware,KiCad,Pcbnew,10.0.3*%
%TF.CreationDate,2026-06-26T19:04:20+05:30*%
%TF.ProjectId,FULLWAVERECTIFIER,46554c4c-5741-4564-9552-454354494649,rev?*%
%TF.SameCoordinates,Original*%
%TF.FileFunction,Legend,Top*%
%TF.FilePolarity,Positive*%
%FSLAX46Y46*%
G04 Gerber Fmt 4.6, Leading zero omitted, Abs format (unit mm)*
G04 Created by KiCad (PCBNEW 10.0.3) date 2026-06-26 19:04:20*
%MOMM*%
%LPD*%
G01*
G04 APERTURE LIST*
%ADD10C,0.150000*%
%ADD11C,0.120000*%
G04 APERTURE END LIST*
D10*
X170378333Y-83379819D02*
X170045000Y-82903628D01*
X169806905Y-83379819D02*
X169806905Y-82379819D01*
X169806905Y-82379819D02*
X170187857Y-82379819D01*
X170187857Y-82379819D02*
X170283095Y-82427438D01*
X170283095Y-82427438D02*
X170330714Y-82475057D01*
X170330714Y-82475057D02*
X170378333Y-82570295D01*
X170378333Y-82570295D02*
X170378333Y-82713152D01*
X170378333Y-82713152D02*
X170330714Y-82808390D01*
X170330714Y-82808390D02*
X170283095Y-82856009D01*
X170283095Y-82856009D02*
X170187857Y-82903628D01*
X170187857Y-82903628D02*
X169806905Y-82903628D01*
X170759286Y-82475057D02*
X170806905Y-82427438D01*
X170806905Y-82427438D02*
X170902143Y-82379819D01*
X170902143Y-82379819D02*
X171140238Y-82379819D01*
X171140238Y-82379819D02*
X171235476Y-82427438D01*
X171235476Y-82427438D02*
X171283095Y-82475057D01*
X171283095Y-82475057D02*
X171330714Y-82570295D01*
X171330714Y-82570295D02*
X171330714Y-82665533D01*
X171330714Y-82665533D02*
X171283095Y-82808390D01*
X171283095Y-82808390D02*
X170711667Y-83379819D01*
X170711667Y-83379819D02*
X171330714Y-83379819D01*
X158039819Y-80051666D02*
X157563628Y-80384999D01*
X158039819Y-80623094D02*
X157039819Y-80623094D01*
X157039819Y-80623094D02*
X157039819Y-80242142D01*
X157039819Y-80242142D02*
X157087438Y-80146904D01*
X157087438Y-80146904D02*
X157135057Y-80099285D01*
X157135057Y-80099285D02*
X157230295Y-80051666D01*
X157230295Y-80051666D02*
X157373152Y-80051666D01*
X157373152Y-80051666D02*
X157468390Y-80099285D01*
X157468390Y-80099285D02*
X157516009Y-80146904D01*
X157516009Y-80146904D02*
X157563628Y-80242142D01*
X157563628Y-80242142D02*
X157563628Y-80623094D01*
X158039819Y-79099285D02*
X158039819Y-79670713D01*
X158039819Y-79384999D02*
X157039819Y-79384999D01*
X157039819Y-79384999D02*
X157182676Y-79480237D01*
X157182676Y-79480237D02*
X157277914Y-79575475D01*
X157277914Y-79575475D02*
X157325533Y-79670713D01*
X186739820Y-88433934D02*
X187454105Y-88433934D01*
X187454105Y-88433934D02*
X187596962Y-88481553D01*
X187596962Y-88481553D02*
X187692201Y-88576791D01*
X187692201Y-88576791D02*
X187739820Y-88719648D01*
X187739820Y-88719648D02*
X187739820Y-88814886D01*
X186835058Y-88005362D02*
X186787439Y-87957743D01*
X186787439Y-87957743D02*
X186739820Y-87862505D01*
X186739820Y-87862505D02*
X186739820Y-87624410D01*
X186739820Y-87624410D02*
X186787439Y-87529172D01*
X186787439Y-87529172D02*
X186835058Y-87481553D01*
X186835058Y-87481553D02*
X186930296Y-87433934D01*
X186930296Y-87433934D02*
X187025534Y-87433934D01*
X187025534Y-87433934D02*
X187168391Y-87481553D01*
X187168391Y-87481553D02*
X187739820Y-88052981D01*
X187739820Y-88052981D02*
X187739820Y-87433934D01*
X137079819Y-88428333D02*
X137794104Y-88428333D01*
X137794104Y-88428333D02*
X137936961Y-88475952D01*
X137936961Y-88475952D02*
X138032200Y-88571190D01*
X138032200Y-88571190D02*
X138079819Y-88714047D01*
X138079819Y-88714047D02*
X138079819Y-88809285D01*
X138079819Y-87428333D02*
X138079819Y-87999761D01*
X138079819Y-87714047D02*
X137079819Y-87714047D01*
X137079819Y-87714047D02*
X137222676Y-87809285D01*
X137222676Y-87809285D02*
X137317914Y-87904523D01*
X137317914Y-87904523D02*
X137365533Y-87999761D01*
X169261905Y-87084819D02*
X169261905Y-86084819D01*
X169261905Y-86084819D02*
X169500000Y-86084819D01*
X169500000Y-86084819D02*
X169642857Y-86132438D01*
X169642857Y-86132438D02*
X169738095Y-86227676D01*
X169738095Y-86227676D02*
X169785714Y-86322914D01*
X169785714Y-86322914D02*
X169833333Y-86513390D01*
X169833333Y-86513390D02*
X169833333Y-86656247D01*
X169833333Y-86656247D02*
X169785714Y-86846723D01*
X169785714Y-86846723D02*
X169738095Y-86941961D01*
X169738095Y-86941961D02*
X169642857Y-87037200D01*
X169642857Y-87037200D02*
X169500000Y-87084819D01*
X169500000Y-87084819D02*
X169261905Y-87084819D01*
X170738095Y-86084819D02*
X170261905Y-86084819D01*
X170261905Y-86084819D02*
X170214286Y-86561009D01*
X170214286Y-86561009D02*
X170261905Y-86513390D01*
X170261905Y-86513390D02*
X170357143Y-86465771D01*
X170357143Y-86465771D02*
X170595238Y-86465771D01*
X170595238Y-86465771D02*
X170690476Y-86513390D01*
X170690476Y-86513390D02*
X170738095Y-86561009D01*
X170738095Y-86561009D02*
X170785714Y-86656247D01*
X170785714Y-86656247D02*
X170785714Y-86894342D01*
X170785714Y-86894342D02*
X170738095Y-86989580D01*
X170738095Y-86989580D02*
X170690476Y-87037200D01*
X170690476Y-87037200D02*
X170595238Y-87084819D01*
X170595238Y-87084819D02*
X170357143Y-87084819D01*
X170357143Y-87084819D02*
X170261905Y-87037200D01*
X170261905Y-87037200D02*
X170214286Y-86989580D01*
X153976019Y-98065092D02*
X152976019Y-98065092D01*
X152976019Y-98065092D02*
X152976019Y-97826997D01*
X152976019Y-97826997D02*
X153023638Y-97684140D01*
X153023638Y-97684140D02*
X153118876Y-97588902D01*
X153118876Y-97588902D02*
X153214114Y-97541283D01*
X153214114Y-97541283D02*
X153404590Y-97493664D01*
X153404590Y-97493664D02*
X153547447Y-97493664D01*
X153547447Y-97493664D02*
X153737923Y-97541283D01*
X153737923Y-97541283D02*
X153833161Y-97588902D01*
X153833161Y-97588902D02*
X153928400Y-97684140D01*
X153928400Y-97684140D02*
X153976019Y-97826997D01*
X153976019Y-97826997D02*
X153976019Y-98065092D01*
X153309352Y-96636521D02*
X153976019Y-96636521D01*
X152928400Y-96874616D02*
X153642685Y-97112711D01*
X153642685Y-97112711D02*
X153642685Y-96493664D01*
X153606019Y-92508902D02*
X152606019Y-92508902D01*
X153606019Y-91937474D02*
X153034590Y-92366045D01*
X152606019Y-91937474D02*
X153177447Y-92508902D01*
X145935819Y-98252893D02*
X144935819Y-98252893D01*
X144935819Y-98252893D02*
X144935819Y-98014798D01*
X144935819Y-98014798D02*
X144983438Y-97871941D01*
X144983438Y-97871941D02*
X145078676Y-97776703D01*
X145078676Y-97776703D02*
X145173914Y-97729084D01*
X145173914Y-97729084D02*
X145364390Y-97681465D01*
X145364390Y-97681465D02*
X145507247Y-97681465D01*
X145507247Y-97681465D02*
X145697723Y-97729084D01*
X145697723Y-97729084D02*
X145792961Y-97776703D01*
X145792961Y-97776703D02*
X145888200Y-97871941D01*
X145888200Y-97871941D02*
X145935819Y-98014798D01*
X145935819Y-98014798D02*
X145935819Y-98252893D01*
X144935819Y-97348131D02*
X144935819Y-96729084D01*
X144935819Y-96729084D02*
X145316771Y-97062417D01*
X145316771Y-97062417D02*
X145316771Y-96919560D01*
X145316771Y-96919560D02*
X145364390Y-96824322D01*
X145364390Y-96824322D02*
X145412009Y-96776703D01*
X145412009Y-96776703D02*
X145507247Y-96729084D01*
X145507247Y-96729084D02*
X145745342Y-96729084D01*
X145745342Y-96729084D02*
X145840580Y-96776703D01*
X145840580Y-96776703D02*
X145888200Y-96824322D01*
X145888200Y-96824322D02*
X145935819Y-96919560D01*
X145935819Y-96919560D02*
X145935819Y-97205274D01*
X145935819Y-97205274D02*
X145888200Y-97300512D01*
X145888200Y-97300512D02*
X145840580Y-97348131D01*
X145565819Y-92696703D02*
X144565819Y-92696703D01*
X145565819Y-92125275D02*
X144994390Y-92553846D01*
X144565819Y-92125275D02*
X145137247Y-92696703D01*
X153828018Y-79481995D02*
X152828018Y-79481995D01*
X152828018Y-79481995D02*
X152828018Y-79243900D01*
X152828018Y-79243900D02*
X152875637Y-79101043D01*
X152875637Y-79101043D02*
X152970875Y-79005805D01*
X152970875Y-79005805D02*
X153066113Y-78958186D01*
X153066113Y-78958186D02*
X153256589Y-78910567D01*
X153256589Y-78910567D02*
X153399446Y-78910567D01*
X153399446Y-78910567D02*
X153589922Y-78958186D01*
X153589922Y-78958186D02*
X153685160Y-79005805D01*
X153685160Y-79005805D02*
X153780399Y-79101043D01*
X153780399Y-79101043D02*
X153828018Y-79243900D01*
X153828018Y-79243900D02*
X153828018Y-79481995D01*
X152923256Y-78529614D02*
X152875637Y-78481995D01*
X152875637Y-78481995D02*
X152828018Y-78386757D01*
X152828018Y-78386757D02*
X152828018Y-78148662D01*
X152828018Y-78148662D02*
X152875637Y-78053424D01*
X152875637Y-78053424D02*
X152923256Y-78005805D01*
X152923256Y-78005805D02*
X153018494Y-77958186D01*
X153018494Y-77958186D02*
X153113732Y-77958186D01*
X153113732Y-77958186D02*
X153256589Y-78005805D01*
X153256589Y-78005805D02*
X153828018Y-78577233D01*
X153828018Y-78577233D02*
X153828018Y-77958186D01*
X153458018Y-73925805D02*
X152458018Y-73925805D01*
X153458018Y-73354377D02*
X152886589Y-73782948D01*
X152458018Y-73354377D02*
X153029446Y-73925805D01*
X145929819Y-79503094D02*
X144929819Y-79503094D01*
X144929819Y-79503094D02*
X144929819Y-79264999D01*
X144929819Y-79264999D02*
X144977438Y-79122142D01*
X144977438Y-79122142D02*
X145072676Y-79026904D01*
X145072676Y-79026904D02*
X145167914Y-78979285D01*
X145167914Y-78979285D02*
X145358390Y-78931666D01*
X145358390Y-78931666D02*
X145501247Y-78931666D01*
X145501247Y-78931666D02*
X145691723Y-78979285D01*
X145691723Y-78979285D02*
X145786961Y-79026904D01*
X145786961Y-79026904D02*
X145882200Y-79122142D01*
X145882200Y-79122142D02*
X145929819Y-79264999D01*
X145929819Y-79264999D02*
X145929819Y-79503094D01*
X145929819Y-77979285D02*
X145929819Y-78550713D01*
X145929819Y-78264999D02*
X144929819Y-78264999D01*
X144929819Y-78264999D02*
X145072676Y-78360237D01*
X145072676Y-78360237D02*
X145167914Y-78455475D01*
X145167914Y-78455475D02*
X145215533Y-78550713D01*
X145559819Y-73946904D02*
X144559819Y-73946904D01*
X145559819Y-73375476D02*
X144988390Y-73804047D01*
X144559819Y-73375476D02*
X145131247Y-73946904D01*
X166514580Y-91932603D02*
X166562200Y-91980222D01*
X166562200Y-91980222D02*
X166609819Y-92123079D01*
X166609819Y-92123079D02*
X166609819Y-92218317D01*
X166609819Y-92218317D02*
X166562200Y-92361174D01*
X166562200Y-92361174D02*
X166466961Y-92456412D01*
X166466961Y-92456412D02*
X166371723Y-92504031D01*
X166371723Y-92504031D02*
X166181247Y-92551650D01*
X166181247Y-92551650D02*
X166038390Y-92551650D01*
X166038390Y-92551650D02*
X165847914Y-92504031D01*
X165847914Y-92504031D02*
X165752676Y-92456412D01*
X165752676Y-92456412D02*
X165657438Y-92361174D01*
X165657438Y-92361174D02*
X165609819Y-92218317D01*
X165609819Y-92218317D02*
X165609819Y-92123079D01*
X165609819Y-92123079D02*
X165657438Y-91980222D01*
X165657438Y-91980222D02*
X165705057Y-91932603D01*
X166609819Y-90980222D02*
X166609819Y-91551650D01*
X166609819Y-91265936D02*
X165609819Y-91265936D01*
X165609819Y-91265936D02*
X165752676Y-91361174D01*
X165752676Y-91361174D02*
X165847914Y-91456412D01*
X165847914Y-91456412D02*
X165895533Y-91551650D01*
%TO.C,R2*%
D11*
X168625000Y-83925000D02*
X172465000Y-83925000D01*
X168625000Y-85765000D02*
X172465000Y-85765000D01*
%TO.C,R1*%
X158585000Y-81805000D02*
X158585000Y-77965000D01*
X160425000Y-81805000D02*
X160425000Y-77965000D01*
%TO.C,J2*%
X186285001Y-82730601D02*
X186285001Y-93470601D01*
X182665001Y-82730601D02*
X182665001Y-83970601D01*
X181665001Y-82730601D02*
X181665001Y-83970601D01*
X180365001Y-82730601D02*
X180365001Y-83970601D01*
X178245001Y-82730601D02*
X186285001Y-82730601D01*
X178245001Y-85550601D02*
X178245001Y-82730601D01*
X182665001Y-87730601D02*
X182665001Y-89038601D01*
X181665001Y-87730601D02*
X181665001Y-89038601D01*
X180365001Y-87730601D02*
X180365001Y-90307601D01*
X180365001Y-91393601D02*
X180365001Y-93470601D01*
X182665001Y-92662601D02*
X182665001Y-93470601D01*
X181665001Y-92662601D02*
X181665001Y-93470601D01*
X186285001Y-93470601D02*
X178245001Y-93470601D01*
X178245001Y-93470601D02*
X178245001Y-86150601D01*
X178245001Y-85850601D02*
X177635001Y-86290601D01*
X177635001Y-85410601D01*
X178245001Y-85850601D01*
G36*
X178245001Y-85850601D02*
G01*
X177635001Y-86290601D01*
X177635001Y-85410601D01*
X178245001Y-85850601D01*
G37*
%TO.C,J1*%
X136625000Y-82725000D02*
X136625000Y-93465000D01*
X133005000Y-82725000D02*
X133005000Y-83965000D01*
X132005000Y-82725000D02*
X132005000Y-83965000D01*
X130705000Y-82725000D02*
X130705000Y-83965000D01*
X128585000Y-82725000D02*
X136625000Y-82725000D01*
X128585000Y-85545000D02*
X128585000Y-82725000D01*
X133005000Y-87725000D02*
X133005000Y-89033000D01*
X132005000Y-87725000D02*
X132005000Y-89033000D01*
X130705000Y-87725000D02*
X130705000Y-90302000D01*
X130705000Y-91388000D02*
X130705000Y-93465000D01*
X133005000Y-92657000D02*
X133005000Y-93465000D01*
X132005000Y-92657000D02*
X132005000Y-93465000D01*
X136625000Y-93465000D02*
X128585000Y-93465000D01*
X128585000Y-93465000D02*
X128585000Y-86145000D01*
X128585000Y-85845000D02*
X127975000Y-86285000D01*
X127975000Y-85405000D01*
X128585000Y-85845000D01*
G36*
X128585000Y-85845000D02*
G01*
X127975000Y-86285000D01*
X127975000Y-85405000D01*
X128585000Y-85845000D01*
G37*
%TO.C,D5*%
X167440000Y-92340000D02*
X167440000Y-98500000D01*
X167440000Y-92340000D02*
X172560000Y-92340000D01*
X172560000Y-92340000D02*
X172560000Y-98500000D01*
X168730000Y-89670000D02*
X168730000Y-92340000D01*
X168730000Y-89670000D01*
X171270000Y-89670000D02*
X171270000Y-92340000D01*
X171270000Y-89670000D01*
X172560000Y-92340000D02*
X172960000Y-92340000D01*
X172960000Y-93460000D01*
X172560000Y-93460000D01*
X172560000Y-92340000D01*
X172560000Y-98500000D02*
G75*
G02*
X167440000Y-98500000I-2560000J0D01*
G01*
%TO.C,D4*%
X151051200Y-93586998D02*
X151051200Y-94606998D01*
X152521200Y-95386998D02*
X149581200Y-95386998D01*
X152521200Y-95506998D02*
X149581200Y-95506998D01*
X152521200Y-95626998D02*
X149581200Y-95626998D01*
X151051200Y-101066998D02*
X151051200Y-100046998D01*
X149581200Y-94606998D02*
X152521200Y-94606998D01*
X152521200Y-100046998D01*
X149581200Y-100046998D01*
X149581200Y-94606998D01*
%TO.C,D3*%
X143011000Y-93774799D02*
X143011000Y-94794799D01*
X144481000Y-95574799D02*
X141541000Y-95574799D01*
X144481000Y-95694799D02*
X141541000Y-95694799D01*
X144481000Y-95814799D02*
X141541000Y-95814799D01*
X143011000Y-101254799D02*
X143011000Y-100234799D01*
X141541000Y-94794799D02*
X144481000Y-94794799D01*
X144481000Y-100234799D01*
X141541000Y-100234799D01*
X141541000Y-94794799D01*
%TO.C,D2*%
X150903199Y-75003901D02*
X150903199Y-76023901D01*
X152373199Y-76803901D02*
X149433199Y-76803901D01*
X152373199Y-76923901D02*
X149433199Y-76923901D01*
X152373199Y-77043901D02*
X149433199Y-77043901D01*
X150903199Y-82483901D02*
X150903199Y-81463901D01*
X149433199Y-76023901D02*
X152373199Y-76023901D01*
X152373199Y-81463901D01*
X149433199Y-81463901D01*
X149433199Y-76023901D01*
%TO.C,D1*%
X143005000Y-75025000D02*
X143005000Y-76045000D01*
X144475000Y-76825000D02*
X141535000Y-76825000D01*
X144475000Y-76945000D02*
X141535000Y-76945000D01*
X144475000Y-77065000D02*
X141535000Y-77065000D01*
X143005000Y-82505000D02*
X143005000Y-81485000D01*
X141535000Y-76045000D02*
X144475000Y-76045000D01*
X144475000Y-81485000D01*
X141535000Y-81485000D01*
X141535000Y-76045000D01*
%TO.C,C1*%
X162780000Y-86286291D02*
X162780000Y-87286291D01*
X163280000Y-86786291D02*
X162280000Y-86786291D01*
X164985000Y-91765937D02*
X154825000Y-91765937D01*
X164985000Y-91805937D02*
X154825000Y-91805937D01*
X164984000Y-91845937D02*
X154826000Y-91845937D01*
X164984000Y-91885937D02*
X154826000Y-91885937D01*
X164982000Y-91925937D02*
X154828000Y-91925937D01*
X164981000Y-91965937D02*
X154829000Y-91965937D01*
X164979000Y-92005937D02*
X160945000Y-92005937D01*
X158865000Y-92005937D02*
X154831000Y-92005937D01*
X164977000Y-92045937D02*
X160945000Y-92045937D01*
X158865000Y-92045937D02*
X154833000Y-92045937D01*
X164975000Y-92085937D02*
X160945000Y-92085937D01*
X158865000Y-92085937D02*
X154835000Y-92085937D01*
X164972000Y-92125937D02*
X160945000Y-92125937D01*
X158865000Y-92125937D02*
X154838000Y-92125937D01*
X164969000Y-92165937D02*
X160945000Y-92165937D01*
X158865000Y-92165937D02*
X154841000Y-92165937D01*
X164966000Y-92205937D02*
X160945000Y-92205937D01*
X158865000Y-92205937D02*
X154844000Y-92205937D01*
X164962000Y-92245937D02*
X160945000Y-92245937D01*
X158865000Y-92245937D02*
X154848000Y-92245937D01*
X164959000Y-92285937D02*
X160945000Y-92285937D01*
X158865000Y-92285937D02*
X154851000Y-92285937D01*
X164954000Y-92325937D02*
X160945000Y-92325937D01*
X158865000Y-92325937D02*
X154856000Y-92325937D01*
X164950000Y-92365937D02*
X160945000Y-92365937D01*
X158865000Y-92365937D02*
X154860000Y-92365937D01*
X164945000Y-92405937D02*
X160945000Y-92405937D01*
X158865000Y-92405937D02*
X154865000Y-92405937D01*
X164940000Y-92445937D02*
X160945000Y-92445937D01*
X158865000Y-92445937D02*
X154870000Y-92445937D01*
X164934000Y-92485937D02*
X160945000Y-92485937D01*
X158865000Y-92485937D02*
X154876000Y-92485937D01*
X164928000Y-92525937D02*
X160945000Y-92525937D01*
X158865000Y-92525937D02*
X154882000Y-92525937D01*
X164922000Y-92565937D02*
X160945000Y-92565937D01*
X158865000Y-92565937D02*
X154888000Y-92565937D01*
X164916000Y-92605937D02*
X160945000Y-92605937D01*
X158865000Y-92605937D02*
X154894000Y-92605937D01*
X164909000Y-92645937D02*
X160945000Y-92645937D01*
X158865000Y-92645937D02*
X154901000Y-92645937D01*
X164902000Y-92685937D02*
X160945000Y-92685937D01*
X157265000Y-92685937D02*
X154908000Y-92685937D01*
X164894000Y-92725937D02*
X160945000Y-92725937D01*
X157265000Y-92725937D02*
X154916000Y-92725937D01*
X164886000Y-92765937D02*
X160945000Y-92765937D01*
X157265000Y-92765937D02*
X154924000Y-92765937D01*
X164878000Y-92805937D02*
X160945000Y-92805937D01*
X157265000Y-92805937D02*
X154932000Y-92805937D01*
X164870000Y-92845937D02*
X160945000Y-92845937D01*
X157265000Y-92845937D02*
X154940000Y-92845937D01*
X164861000Y-92885937D02*
X160945000Y-92885937D01*
X157265000Y-92885937D02*
X154949000Y-92885937D01*
X164852000Y-92925937D02*
X160945000Y-92925937D01*
X157265000Y-92925937D02*
X154958000Y-92925937D01*
X164842000Y-92965937D02*
X160945000Y-92965937D01*
X157265000Y-92965937D02*
X154968000Y-92965937D01*
X164833000Y-93005937D02*
X160945000Y-93005937D01*
X157265000Y-93005937D02*
X154977000Y-93005937D01*
X164822000Y-93045937D02*
X160945000Y-93045937D01*
X157265000Y-93045937D02*
X154988000Y-93045937D01*
X164812000Y-93085937D02*
X160945000Y-93085937D01*
X157265000Y-93085937D02*
X154998000Y-93085937D01*
X164801000Y-93125937D02*
X160945000Y-93125937D01*
X157265000Y-93125937D02*
X155009000Y-93125937D01*
X164790000Y-93165937D02*
X160945000Y-93165937D01*
X157265000Y-93165937D02*
X155020000Y-93165937D01*
X164778000Y-93205937D02*
X160945000Y-93205937D01*
X157265000Y-93205937D02*
X155032000Y-93205937D01*
X164766000Y-93245937D02*
X160945000Y-93245937D01*
X157265000Y-93245937D02*
X155044000Y-93245937D01*
X164754000Y-93285937D02*
X160945000Y-93285937D01*
X157265000Y-93285937D02*
X155056000Y-93285937D01*
X164742000Y-93325937D02*
X160945000Y-93325937D01*
X157265000Y-93325937D02*
X155068000Y-93325937D01*
X164729000Y-93365937D02*
X160945000Y-93365937D01*
X157265000Y-93365937D02*
X155081000Y-93365937D01*
X164715000Y-93405937D02*
X160945000Y-93405937D01*
X157265000Y-93405937D02*
X155095000Y-93405937D01*
X164702000Y-93445937D02*
X160945000Y-93445937D01*
X157265000Y-93445937D02*
X155108000Y-93445937D01*
X164687000Y-93485937D02*
X160945000Y-93485937D01*
X157265000Y-93485937D02*
X155123000Y-93485937D01*
X164673000Y-93525937D02*
X160945000Y-93525937D01*
X157265000Y-93525937D02*
X155137000Y-93525937D01*
X164658000Y-93565937D02*
X160945000Y-93565937D01*
X157265000Y-93565937D02*
X155152000Y-93565937D01*
X164643000Y-93605937D02*
X160945000Y-93605937D01*
X157265000Y-93605937D02*
X155167000Y-93605937D01*
X164627000Y-93645937D02*
X160945000Y-93645937D01*
X157265000Y-93645937D02*
X155183000Y-93645937D01*
X164611000Y-93685937D02*
X160945000Y-93685937D01*
X157265000Y-93685937D02*
X155199000Y-93685937D01*
X164595000Y-93725937D02*
X160945000Y-93725937D01*
X157265000Y-93725937D02*
X155215000Y-93725937D01*
X164578000Y-93765937D02*
X160945000Y-93765937D01*
X157265000Y-93765937D02*
X155232000Y-93765937D01*
X164561000Y-93805937D02*
X160945000Y-93805937D01*
X157265000Y-93805937D02*
X155249000Y-93805937D01*
X164543000Y-93845937D02*
X160945000Y-93845937D01*
X157265000Y-93845937D02*
X155267000Y-93845937D01*
X164525000Y-93885937D02*
X160945000Y-93885937D01*
X157265000Y-93885937D02*
X155285000Y-93885937D01*
X164507000Y-93925937D02*
X160945000Y-93925937D01*
X157265000Y-93925937D02*
X155303000Y-93925937D01*
X164488000Y-93965937D02*
X160945000Y-93965937D01*
X157265000Y-93965937D02*
X155322000Y-93965937D01*
X164469000Y-94005937D02*
X160945000Y-94005937D01*
X157265000Y-94005937D02*
X155341000Y-94005937D01*
X164449000Y-94045937D02*
X160945000Y-94045937D01*
X157265000Y-94045937D02*
X155361000Y-94045937D01*
X164429000Y-94085937D02*
X159345000Y-94085937D01*
X157265000Y-94085937D02*
X155381000Y-94085937D01*
X164409000Y-94125937D02*
X159345000Y-94125937D01*
X157265000Y-94125937D02*
X155401000Y-94125937D01*
X164388000Y-94165937D02*
X159345000Y-94165937D01*
X157265000Y-94165937D02*
X155422000Y-94165937D01*
X164366000Y-94205937D02*
X159345000Y-94205937D01*
X157265000Y-94205937D02*
X155444000Y-94205937D01*
X164344000Y-94245937D02*
X159345000Y-94245937D01*
X157265000Y-94245937D02*
X155466000Y-94245937D01*
X164322000Y-94285937D02*
X159345000Y-94285937D01*
X157265000Y-94285937D02*
X155488000Y-94285937D01*
X164299000Y-94325937D02*
X159345000Y-94325937D01*
X157265000Y-94325937D02*
X155511000Y-94325937D01*
X164276000Y-94365937D02*
X159345000Y-94365937D01*
X157265000Y-94365937D02*
X155534000Y-94365937D01*
X164252000Y-94405937D02*
X159345000Y-94405937D01*
X157265000Y-94405937D02*
X155558000Y-94405937D01*
X164228000Y-94445937D02*
X159345000Y-94445937D01*
X157265000Y-94445937D02*
X155582000Y-94445937D01*
X164203000Y-94485937D02*
X159345000Y-94485937D01*
X157265000Y-94485937D02*
X155607000Y-94485937D01*
X164177000Y-94525937D02*
X159345000Y-94525937D01*
X157265000Y-94525937D02*
X155633000Y-94525937D01*
X164152000Y-94565937D02*
X159345000Y-94565937D01*
X157265000Y-94565937D02*
X155658000Y-94565937D01*
X164125000Y-94605937D02*
X159345000Y-94605937D01*
X157265000Y-94605937D02*
X155685000Y-94605937D01*
X164098000Y-94645937D02*
X159345000Y-94645937D01*
X157265000Y-94645937D02*
X155712000Y-94645937D01*
X164071000Y-94685937D02*
X159345000Y-94685937D01*
X157265000Y-94685937D02*
X155739000Y-94685937D01*
X164043000Y-94725937D02*
X159345000Y-94725937D01*
X157265000Y-94725937D02*
X155767000Y-94725937D01*
X164014000Y-94765937D02*
X155796000Y-94765937D01*
X163985000Y-94805937D02*
X155825000Y-94805937D01*
X163955000Y-94845937D02*
X155855000Y-94845937D01*
X163925000Y-94885937D02*
X155885000Y-94885937D01*
X163893000Y-94925937D02*
X155917000Y-94925937D01*
X163862000Y-94965937D02*
X155948000Y-94965937D01*
X163829000Y-95005937D02*
X155981000Y-95005937D01*
X163796000Y-95045937D02*
X156014000Y-95045937D01*
X163763000Y-95085937D02*
X156047000Y-95085937D01*
X163728000Y-95125937D02*
X156082000Y-95125937D01*
X163693000Y-95165937D02*
X156117000Y-95165937D01*
X163657000Y-95205937D02*
X156153000Y-95205937D01*
X163621000Y-95245937D02*
X156189000Y-95245937D01*
X163583000Y-95285937D02*
X156227000Y-95285937D01*
X163545000Y-95325937D02*
X156265000Y-95325937D01*
X163506000Y-95365937D02*
X156304000Y-95365937D01*
X163466000Y-95405937D02*
X156344000Y-95405937D01*
X163425000Y-95445937D02*
X156385000Y-95445937D01*
X163383000Y-95485937D02*
X156427000Y-95485937D01*
X163340000Y-95525937D02*
X156470000Y-95525937D01*
X163296000Y-95565937D02*
X156514000Y-95565937D01*
X163252000Y-95605937D02*
X156558000Y-95605937D01*
X163206000Y-95645937D02*
X156604000Y-95645937D01*
X163159000Y-95685937D02*
X156651000Y-95685937D01*
X163110000Y-95725937D02*
X156700000Y-95725937D01*
X163061000Y-95765937D02*
X156749000Y-95765937D01*
X163010000Y-95805937D02*
X156800000Y-95805937D01*
X162958000Y-95845937D02*
X156852000Y-95845937D01*
X162905000Y-95885937D02*
X156905000Y-95885937D01*
X162850000Y-95925937D02*
X156960000Y-95925937D01*
X162793000Y-95965937D02*
X157017000Y-95965937D01*
X162735000Y-96005937D02*
X157075000Y-96005937D01*
X162675000Y-96045937D02*
X157135000Y-96045937D01*
X162613000Y-96085937D02*
X157197000Y-96085937D01*
X162549000Y-96125937D02*
X157261000Y-96125937D01*
X162483000Y-96165937D02*
X157327000Y-96165937D01*
X162415000Y-96205937D02*
X157395000Y-96205937D01*
X162344000Y-96245937D02*
X157466000Y-96245937D01*
X162270000Y-96285937D02*
X157540000Y-96285937D01*
X162193000Y-96325937D02*
X157617000Y-96325937D01*
X162113000Y-96365937D02*
X157697000Y-96365937D01*
X162029000Y-96405937D02*
X157781000Y-96405937D01*
X161942000Y-96445937D02*
X157868000Y-96445937D01*
X161849000Y-96485937D02*
X157961000Y-96485937D01*
X161751000Y-96525937D02*
X158059000Y-96525937D01*
X161647000Y-96565937D02*
X158163000Y-96565937D01*
X161535000Y-96605937D02*
X158275000Y-96605937D01*
X161414000Y-96645937D02*
X158396000Y-96645937D01*
X161282000Y-96685937D02*
X158528000Y-96685937D01*
X161135000Y-96725937D02*
X158675000Y-96725937D01*
X160967000Y-96765937D02*
X158843000Y-96765937D01*
X160767000Y-96805937D02*
X159043000Y-96805937D01*
X160504000Y-96845937D02*
X159306000Y-96845937D01*
X165025000Y-91765937D02*
G75*
G02*
X154785000Y-91765937I-5120000J0D01*
G01*
X154785000Y-91765937D02*
G75*
G02*
X165025000Y-91765937I5120000J0D01*
G01*
%TD*%
M02*
