%TF.GenerationSoftware,KiCad,Pcbnew,10.0.3*%
%TF.CreationDate,2026-06-26T19:04:20+05:30*%
%TF.ProjectId,FULLWAVERECTIFIER,46554c4c-5741-4564-9552-454354494649,rev?*%
%TF.SameCoordinates,Original*%
%TF.FileFunction,Copper,L1,Top*%
%TF.FilePolarity,Positive*%
%FSLAX46Y46*%
G04 Gerber Fmt 4.6, Leading zero omitted, Abs format (unit mm)*
G04 Created by KiCad (PCBNEW 10.0.3) date 2026-06-26 19:04:20*
%MOMM*%
%LPD*%
G01*
G04 APERTURE LIST*
G04 Aperture macros list*
%AMRoundRect*
0 Rectangle with rounded corners*
0 $1 Rounding radius*
0 $2 $3 $4 $5 $6 $7 $8 $9 X,Y pos of 4 corners*
0 Add a 4 corners polygon primitive as box body*
4,1,4,$2,$3,$4,$5,$6,$7,$8,$9,$2,$3,0*
0 Add four circle primitives for the rounded corners*
1,1,$1+$1,$2,$3*
1,1,$1+$1,$4,$5*
1,1,$1+$1,$6,$7*
1,1,$1+$1,$8,$9*
0 Add four rect primitives between the rounded corners*
20,1,$1+$1,$2,$3,$4,$5,0*
20,1,$1+$1,$4,$5,$6,$7,0*
20,1,$1+$1,$6,$7,$8,$9,0*
20,1,$1+$1,$8,$9,$2,$3,0*%
G04 Aperture macros list end*
%TA.AperFunction,ComponentPad*%
%ADD10C,1.400000*%
%TD*%
%TA.AperFunction,ComponentPad*%
%ADD11RoundRect,0.250001X-1.149999X1.149999X-1.149999X-1.149999X1.149999X-1.149999X1.149999X1.149999X0*%
%TD*%
%TA.AperFunction,ComponentPad*%
%ADD12C,2.800000*%
%TD*%
%TA.AperFunction,ComponentPad*%
%ADD13R,1.800000X1.800000*%
%TD*%
%TA.AperFunction,ComponentPad*%
%ADD14C,1.800000*%
%TD*%
%TA.AperFunction,ComponentPad*%
%ADD15RoundRect,0.249999X-0.850001X0.850001X-0.850001X-0.850001X0.850001X-0.850001X0.850001X0.850001X0*%
%TD*%
%TA.AperFunction,ComponentPad*%
%ADD16C,2.200000*%
%TD*%
%TA.AperFunction,ComponentPad*%
%ADD17RoundRect,0.250000X-0.550000X0.550000X-0.550000X-0.550000X0.550000X-0.550000X0.550000X0.550000X0*%
%TD*%
%TA.AperFunction,ComponentPad*%
%ADD18C,1.600000*%
%TD*%
%TA.AperFunction,Conductor*%
%ADD19C,0.200000*%
%TD*%
G04 APERTURE END LIST*
D10*
%TO.P,R2,1*%
%TO.N,Net-(D1-K)*%
X168005000Y-84845000D03*
%TO.P,R2,2*%
%TO.N,Net-(D5-A)*%
X173085000Y-84845000D03*
%TD*%
%TO.P,R1,1*%
%TO.N,Net-(D1-K)*%
X159505000Y-82425000D03*
%TO.P,R1,2*%
%TO.N,GND*%
X159505000Y-77345000D03*
%TD*%
D11*
%TO.P,J2,1,Pin_1_1*%
%TO.N,Net-(D1-K)*%
X182165001Y-85850601D03*
D12*
%TO.P,J2,2,Pin_2_2*%
%TO.N,GND*%
X182165001Y-90850601D03*
%TD*%
D11*
%TO.P,J1,1,Pin_1_1*%
%TO.N,Net-(D1-A)*%
X132505000Y-85845000D03*
D12*
%TO.P,J1,2,Pin_2_2*%
%TO.N,Net-(D2-A)*%
X132505000Y-90845000D03*
%TD*%
D13*
%TO.P,D5,1,K_1*%
%TO.N,GND*%
X168730000Y-88590000D03*
D14*
%TO.P,D5,2,A_2*%
%TO.N,Net-(D5-A)*%
X171270000Y-88590000D03*
%TD*%
D15*
%TO.P,D4,1,K_1*%
%TO.N,Net-(D2-A)*%
X151051200Y-92246998D03*
D16*
%TO.P,D4,2,A_2*%
%TO.N,GND*%
X151051200Y-102406998D03*
%TD*%
D15*
%TO.P,D3,1,K_1*%
%TO.N,Net-(D1-A)*%
X143011000Y-92434799D03*
D16*
%TO.P,D3,2,A_2*%
%TO.N,GND*%
X143011000Y-102594799D03*
%TD*%
D15*
%TO.P,D2,1,K_1*%
%TO.N,Net-(D1-K)*%
X150903199Y-73663901D03*
D16*
%TO.P,D2,2,A_2*%
%TO.N,Net-(D2-A)*%
X150903199Y-83823901D03*
%TD*%
D15*
%TO.P,D1,1,K_1*%
%TO.N,Net-(D1-K)*%
X143005000Y-73685000D03*
D16*
%TO.P,D1,2,A_2*%
%TO.N,Net-(D1-A)*%
X143005000Y-83845000D03*
%TD*%
D17*
%TO.P,C1,1*%
%TO.N,Net-(D1-K)*%
X161505000Y-89845000D03*
X159905000Y-90515937D03*
D18*
%TO.P,C1,2*%
%TO.N,GND*%
X159905000Y-93015937D03*
X158305000Y-93686874D03*
%TD*%
%TO.N,Net-(D1-K)*%
D19*
X143000000Y-73680000D02*
X143000000Y-73500000D01*
X143000000Y-73500000D02*
X159905000Y-90405000D01*
X159905000Y-90405000D02*
X159905000Y-90515937D01*
X143005000Y-73685000D02*
X143000000Y-73680000D01*
%TO.N,Net-(D2-A)*%
X150903199Y-92098997D02*
X151051200Y-92246998D01*
X150903199Y-83823901D02*
X150903199Y-92098997D01*
%TO.N,GND*%
X170990601Y-90850601D02*
X168730000Y-88590000D01*
X182165001Y-90850601D02*
X170990601Y-90850601D01*
%TO.N,Net-(D1-K)*%
X180159400Y-83845000D02*
X182165001Y-85850601D01*
X168005000Y-84845000D02*
X169005000Y-83845000D01*
X169005000Y-83845000D02*
X180159400Y-83845000D01*
%TO.N,GND*%
X150863399Y-102594799D02*
X151051200Y-102406998D01*
X143011000Y-102594799D02*
X150863399Y-102594799D01*
X158305000Y-95153198D02*
X158305000Y-93686874D01*
X151051200Y-102406998D02*
X158305000Y-95153198D01*
X164304063Y-93015937D02*
X159905000Y-93015937D01*
X168730000Y-88590000D02*
X164304063Y-93015937D01*
%TO.N,Net-(D5-A)*%
X173085000Y-84845000D02*
X173085000Y-86775000D01*
X173085000Y-86775000D02*
X171270000Y-88590000D01*
%TO.N,Net-(D1-K)*%
X161505000Y-84845000D02*
X161505000Y-89845000D01*
X159505000Y-82845000D02*
X161505000Y-84845000D01*
X159505000Y-82425000D02*
X159505000Y-82845000D01*
X163005000Y-89845000D02*
X168005000Y-84845000D01*
X161505000Y-89845000D02*
X163005000Y-89845000D01*
X150903199Y-73823199D02*
X159505000Y-82425000D01*
X150903199Y-73663901D02*
X150903199Y-73823199D01*
X150882100Y-73685000D02*
X150903199Y-73663901D01*
X143005000Y-73685000D02*
X150882100Y-73685000D01*
%TO.N,Net-(D1-A)*%
X141005000Y-90024598D02*
X141005000Y-85845000D01*
X143415201Y-92434799D02*
X143505000Y-92345000D01*
X143505000Y-92345000D02*
X143325402Y-92345000D01*
X143325402Y-92345000D02*
X141005000Y-90024598D01*
X143011000Y-92434799D02*
X143415201Y-92434799D01*
X141005000Y-85845000D02*
X143005000Y-83845000D01*
X132505000Y-85845000D02*
X141005000Y-85845000D01*
%TD*%
%TA.AperFunction,Conductor*%
%TO.N,GND*%
G36*
X189942539Y-70020185D02*
G01*
X189988294Y-70072989D01*
X189999500Y-70124500D01*
X189999500Y-105875500D01*
X189979815Y-105942539D01*
X189927011Y-105988294D01*
X189875500Y-105999500D01*
X122624500Y-105999500D01*
X122557461Y-105979815D01*
X122511706Y-105927011D01*
X122500500Y-105875500D01*
X122500500Y-102468870D01*
X141411000Y-102468870D01*
X141411000Y-102720727D01*
X141450397Y-102969468D01*
X141528219Y-103208983D01*
X141642557Y-103433382D01*
X141716748Y-103535496D01*
X141716748Y-103535497D01*
X142487212Y-102765033D01*
X142498482Y-102807091D01*
X142570890Y-102932507D01*
X142673292Y-103034909D01*
X142798708Y-103107317D01*
X142840765Y-103118586D01*
X142070300Y-103889049D01*
X142172416Y-103963241D01*
X142396815Y-104077579D01*
X142636330Y-104155401D01*
X142885072Y-104194799D01*
X143136928Y-104194799D01*
X143385669Y-104155401D01*
X143625184Y-104077579D01*
X143849575Y-103963245D01*
X143849581Y-103963241D01*
X143951697Y-103889049D01*
X143951698Y-103889049D01*
X143181234Y-103118586D01*
X143223292Y-103107317D01*
X143348708Y-103034909D01*
X143451110Y-102932507D01*
X143523518Y-102807091D01*
X143534787Y-102765033D01*
X144305250Y-103535497D01*
X144305250Y-103535496D01*
X144379442Y-103433380D01*
X144379446Y-103433374D01*
X144493780Y-103208983D01*
X144571602Y-102969468D01*
X144611000Y-102720727D01*
X144611000Y-102468870D01*
X144583557Y-102295601D01*
X144581255Y-102281069D01*
X149451200Y-102281069D01*
X149451200Y-102532926D01*
X149490597Y-102781667D01*
X149568419Y-103021182D01*
X149682757Y-103245581D01*
X149756948Y-103347695D01*
X149756948Y-103347696D01*
X150527412Y-102577232D01*
X150538682Y-102619290D01*
X150611090Y-102744706D01*
X150713492Y-102847108D01*
X150838908Y-102919516D01*
X150880965Y-102930785D01*
X150110500Y-103701248D01*
X150212616Y-103775440D01*
X150437015Y-103889778D01*
X150676530Y-103967600D01*
X150925272Y-104006998D01*
X151177128Y-104006998D01*
X151425869Y-103967600D01*
X151665384Y-103889778D01*
X151889775Y-103775444D01*
X151889781Y-103775440D01*
X151991897Y-103701248D01*
X151991898Y-103701248D01*
X151221434Y-102930785D01*
X151263492Y-102919516D01*
X151388908Y-102847108D01*
X151491310Y-102744706D01*
X151563718Y-102619290D01*
X151574987Y-102577233D01*
X152345450Y-103347696D01*
X152345450Y-103347695D01*
X152419642Y-103245579D01*
X152419646Y-103245573D01*
X152533980Y-103021182D01*
X152611802Y-102781667D01*
X152651200Y-102532926D01*
X152651200Y-102281069D01*
X152611802Y-102032328D01*
X152533980Y-101792813D01*
X152419642Y-101568414D01*
X152345450Y-101466299D01*
X152345450Y-101466298D01*
X151574987Y-102236762D01*
X151563718Y-102194706D01*
X151491310Y-102069290D01*
X151388908Y-101966888D01*
X151263492Y-101894480D01*
X151221432Y-101883210D01*
X151991898Y-101112746D01*
X151889783Y-101038555D01*
X151665384Y-100924217D01*
X151425869Y-100846395D01*
X151177128Y-100806998D01*
X150925272Y-100806998D01*
X150676530Y-100846395D01*
X150437015Y-100924217D01*
X150212613Y-101038557D01*
X150110501Y-101112745D01*
X150110500Y-101112746D01*
X150880965Y-101883210D01*
X150838908Y-101894480D01*
X150713492Y-101966888D01*
X150611090Y-102069290D01*
X150538682Y-102194706D01*
X150527412Y-102236763D01*
X149756948Y-101466298D01*
X149756947Y-101466299D01*
X149682759Y-101568411D01*
X149568419Y-101792813D01*
X149490597Y-102032328D01*
X149451200Y-102281069D01*
X144581255Y-102281069D01*
X144571602Y-102220129D01*
X144493780Y-101980614D01*
X144379442Y-101756215D01*
X144305250Y-101654100D01*
X144305250Y-101654099D01*
X143534787Y-102424563D01*
X143523518Y-102382507D01*
X143451110Y-102257091D01*
X143348708Y-102154689D01*
X143223292Y-102082281D01*
X143181232Y-102071011D01*
X143951698Y-101300547D01*
X143896336Y-101260324D01*
X143896334Y-101260322D01*
X143849586Y-101226358D01*
X143625184Y-101112018D01*
X143385669Y-101034196D01*
X143136928Y-100994799D01*
X142885072Y-100994799D01*
X142636330Y-101034196D01*
X142396815Y-101112018D01*
X142172413Y-101226358D01*
X142070301Y-101300546D01*
X142070300Y-101300547D01*
X142840765Y-102071011D01*
X142798708Y-102082281D01*
X142673292Y-102154689D01*
X142570890Y-102257091D01*
X142498482Y-102382507D01*
X142487212Y-102424564D01*
X141716748Y-101654099D01*
X141716747Y-101654100D01*
X141642559Y-101756212D01*
X141528219Y-101980614D01*
X141450397Y-102220129D01*
X141411000Y-102468870D01*
X122500500Y-102468870D01*
X122500500Y-90720441D01*
X130604500Y-90720441D01*
X130604500Y-90969558D01*
X130604501Y-90969575D01*
X130627757Y-91146227D01*
X130637018Y-91216565D01*
X130650121Y-91265466D01*
X130701498Y-91457207D01*
X130796830Y-91687361D01*
X130796837Y-91687376D01*
X130921400Y-91903126D01*
X131073060Y-92100774D01*
X131073066Y-92100781D01*
X131249218Y-92276933D01*
X131249225Y-92276939D01*
X131446873Y-92428599D01*
X131662623Y-92553162D01*
X131662638Y-92553169D01*
X131761825Y-92594253D01*
X131892793Y-92648502D01*
X132133435Y-92712982D01*
X132380435Y-92745500D01*
X132380442Y-92745500D01*
X132629558Y-92745500D01*
X132629565Y-92745500D01*
X132876565Y-92712982D01*
X133117207Y-92648502D01*
X133347373Y-92553164D01*
X133563127Y-92428599D01*
X133760776Y-92276938D01*
X133936938Y-92100776D01*
X134088599Y-91903127D01*
X134213164Y-91687373D01*
X134308502Y-91457207D01*
X134372982Y-91216565D01*
X134405500Y-90969565D01*
X134405500Y-90720435D01*
X134372982Y-90473435D01*
X134308502Y-90232793D01*
X134215577Y-90008452D01*
X134213169Y-90002638D01*
X134213162Y-90002623D01*
X134088599Y-89786873D01*
X133936939Y-89589225D01*
X133936933Y-89589218D01*
X133760781Y-89413066D01*
X133760774Y-89413060D01*
X133563126Y-89261400D01*
X133347376Y-89136837D01*
X133347361Y-89136830D01*
X133117207Y-89041498D01*
X132997166Y-89009333D01*
X132876565Y-88977018D01*
X132876564Y-88977017D01*
X132876561Y-88977017D01*
X132629575Y-88944501D01*
X132629570Y-88944500D01*
X132629565Y-88944500D01*
X132380435Y-88944500D01*
X132380429Y-88944500D01*
X132380424Y-88944501D01*
X132133438Y-88977017D01*
X131892792Y-89041498D01*
X131662638Y-89136830D01*
X131662623Y-89136837D01*
X131446873Y-89261400D01*
X131249225Y-89413060D01*
X131249218Y-89413066D01*
X131073066Y-89589218D01*
X131073060Y-89589225D01*
X130921400Y-89786873D01*
X130796837Y-90002623D01*
X130796830Y-90002638D01*
X130701498Y-90232792D01*
X130637017Y-90473438D01*
X130604501Y-90720424D01*
X130604500Y-90720441D01*
X122500500Y-90720441D01*
X122500500Y-84644984D01*
X130604500Y-84644984D01*
X130604500Y-87045015D01*
X130615000Y-87147795D01*
X130615001Y-87147797D01*
X130637787Y-87216561D01*
X130670186Y-87314335D01*
X130670187Y-87314337D01*
X130762286Y-87463651D01*
X130762289Y-87463655D01*
X130886344Y-87587710D01*
X130886348Y-87587713D01*
X131035662Y-87679812D01*
X131035664Y-87679813D01*
X131035666Y-87679814D01*
X131202203Y-87734999D01*
X131304992Y-87745500D01*
X131304997Y-87745500D01*
X133705003Y-87745500D01*
X133705008Y-87745500D01*
X133807797Y-87734999D01*
X133974334Y-87679814D01*
X134123655Y-87587711D01*
X134247711Y-87463655D01*
X134339814Y-87314334D01*
X134394999Y-87147797D01*
X134405500Y-87045008D01*
X134405500Y-86569500D01*
X134425185Y-86502461D01*
X134477989Y-86456706D01*
X134529500Y-86445500D01*
X140280500Y-86445500D01*
X140347539Y-86465185D01*
X140393294Y-86517989D01*
X140404500Y-86569500D01*
X140404500Y-89937928D01*
X140404499Y-89937946D01*
X140404499Y-90103652D01*
X140404498Y-90103652D01*
X140404499Y-90103655D01*
X140437169Y-90225580D01*
X140445424Y-90256385D01*
X140454177Y-90271545D01*
X140454178Y-90271547D01*
X140524477Y-90393310D01*
X140524481Y-90393315D01*
X140643349Y-90512183D01*
X140643355Y-90512188D01*
X141402302Y-91271135D01*
X141435787Y-91332458D01*
X141432327Y-91397819D01*
X141421001Y-91431997D01*
X141410500Y-91534781D01*
X141410500Y-93334816D01*
X141421000Y-93437595D01*
X141421001Y-93437597D01*
X141476186Y-93604134D01*
X141568288Y-93753455D01*
X141692344Y-93877511D01*
X141841665Y-93969613D01*
X142008202Y-94024798D01*
X142110990Y-94035299D01*
X142110995Y-94035299D01*
X143911005Y-94035299D01*
X143911010Y-94035299D01*
X144013798Y-94024798D01*
X144180335Y-93969613D01*
X144329656Y-93877511D01*
X144453712Y-93753455D01*
X144545814Y-93604134D01*
X144600999Y-93437597D01*
X144611500Y-93334809D01*
X144611500Y-91534789D01*
X144600999Y-91432001D01*
X144545814Y-91265464D01*
X144453712Y-91116143D01*
X144329656Y-90992087D01*
X144180335Y-90899985D01*
X144013798Y-90844800D01*
X144013796Y-90844799D01*
X143911017Y-90834299D01*
X143911010Y-90834299D01*
X142715298Y-90834299D01*
X142648259Y-90814614D01*
X142627617Y-90797980D01*
X141641819Y-89812182D01*
X141608334Y-89750859D01*
X141605500Y-89724501D01*
X141605500Y-86145096D01*
X141625185Y-86078057D01*
X141641815Y-86057419D01*
X142322076Y-85377157D01*
X142383397Y-85343674D01*
X142448073Y-85346909D01*
X142623580Y-85403934D01*
X142630215Y-85406090D01*
X142879038Y-85445500D01*
X142879039Y-85445500D01*
X143130961Y-85445500D01*
X143130962Y-85445500D01*
X143379785Y-85406090D01*
X143619379Y-85328241D01*
X143843845Y-85213870D01*
X144047656Y-85065793D01*
X144225793Y-84887656D01*
X144373870Y-84683845D01*
X144488241Y-84459379D01*
X144566090Y-84219785D01*
X144605500Y-83970962D01*
X144605500Y-83719038D01*
X144566090Y-83470215D01*
X144488241Y-83230621D01*
X144488239Y-83230618D01*
X144488239Y-83230616D01*
X144420117Y-83096920D01*
X144373870Y-83006155D01*
X144286455Y-82885838D01*
X144225798Y-82802350D01*
X144225794Y-82802345D01*
X144047654Y-82624205D01*
X144047649Y-82624201D01*
X143843848Y-82476132D01*
X143843847Y-82476131D01*
X143843845Y-82476130D01*
X143773747Y-82440413D01*
X143619383Y-82361760D01*
X143379785Y-82283910D01*
X143246572Y-82262811D01*
X143130962Y-82244500D01*
X142879038Y-82244500D01*
X142855564Y-82248218D01*
X142630214Y-82283910D01*
X142390616Y-82361760D01*
X142166151Y-82476132D01*
X141962350Y-82624201D01*
X141962345Y-82624205D01*
X141784205Y-82802345D01*
X141784201Y-82802350D01*
X141636132Y-83006151D01*
X141521760Y-83230616D01*
X141443910Y-83470214D01*
X141414035Y-83658835D01*
X141404500Y-83719038D01*
X141404500Y-83970962D01*
X141419066Y-84062925D01*
X141443910Y-84219786D01*
X141443910Y-84219789D01*
X141503090Y-84401924D01*
X141505085Y-84471765D01*
X141472840Y-84527923D01*
X140792584Y-85208181D01*
X140731261Y-85241666D01*
X140704903Y-85244500D01*
X134529500Y-85244500D01*
X134462461Y-85224815D01*
X134416706Y-85172011D01*
X134405500Y-85120500D01*
X134405500Y-84644997D01*
X134405499Y-84644984D01*
X134402253Y-84613215D01*
X134394999Y-84542203D01*
X134339814Y-84375666D01*
X134332914Y-84364480D01*
X134247713Y-84226348D01*
X134247710Y-84226344D01*
X134123655Y-84102289D01*
X134123651Y-84102286D01*
X133974337Y-84010187D01*
X133974335Y-84010186D01*
X133855961Y-83970961D01*
X133807797Y-83955001D01*
X133807795Y-83955000D01*
X133705015Y-83944500D01*
X133705008Y-83944500D01*
X131304992Y-83944500D01*
X131304984Y-83944500D01*
X131202204Y-83955000D01*
X131202203Y-83955001D01*
X131035664Y-84010186D01*
X131035662Y-84010187D01*
X130886348Y-84102286D01*
X130886344Y-84102289D01*
X130762289Y-84226344D01*
X130762286Y-84226348D01*
X130670187Y-84375662D01*
X130670186Y-84375664D01*
X130615001Y-84542203D01*
X130615000Y-84542204D01*
X130604500Y-84644984D01*
X122500500Y-84644984D01*
X122500500Y-72784982D01*
X141404500Y-72784982D01*
X141404500Y-74585017D01*
X141415000Y-74687796D01*
X141415001Y-74687798D01*
X141470186Y-74854335D01*
X141562288Y-75003656D01*
X141686344Y-75127712D01*
X141835665Y-75219814D01*
X142002202Y-75274999D01*
X142104990Y-75285500D01*
X142104995Y-75285500D01*
X143884903Y-75285500D01*
X143951942Y-75305185D01*
X143972584Y-75321819D01*
X150688829Y-82038064D01*
X150722314Y-82099387D01*
X150717330Y-82169079D01*
X150675458Y-82225012D01*
X150620547Y-82248218D01*
X150528412Y-82262811D01*
X150288815Y-82340661D01*
X150064350Y-82455033D01*
X149860549Y-82603102D01*
X149860544Y-82603106D01*
X149682404Y-82781246D01*
X149682400Y-82781251D01*
X149534331Y-82985052D01*
X149419959Y-83209517D01*
X149342109Y-83449115D01*
X149307375Y-83668418D01*
X149302699Y-83697939D01*
X149302699Y-83949863D01*
X149317517Y-84043419D01*
X149342109Y-84198686D01*
X149419959Y-84438284D01*
X149477655Y-84551517D01*
X149528139Y-84650598D01*
X149534331Y-84662749D01*
X149682400Y-84866550D01*
X149682404Y-84866555D01*
X149860544Y-85044695D01*
X149860549Y-85044699D01*
X150030321Y-85168045D01*
X150064354Y-85192771D01*
X150234994Y-85279716D01*
X150285790Y-85327690D01*
X150302699Y-85390201D01*
X150302699Y-90522498D01*
X150283014Y-90589537D01*
X150230210Y-90635292D01*
X150178699Y-90646498D01*
X150151182Y-90646498D01*
X150048403Y-90656998D01*
X150048402Y-90656999D01*
X149968651Y-90683426D01*
X149881867Y-90712183D01*
X149881862Y-90712185D01*
X149732542Y-90804287D01*
X149608489Y-90928340D01*
X149516387Y-91077660D01*
X149516385Y-91077665D01*
X149503635Y-91116143D01*
X149461201Y-91244200D01*
X149461201Y-91244201D01*
X149461200Y-91244201D01*
X149450700Y-91346980D01*
X149450700Y-93147015D01*
X149461200Y-93249794D01*
X149516385Y-93416330D01*
X149516387Y-93416335D01*
X149529502Y-93437597D01*
X149608488Y-93565654D01*
X149732544Y-93689710D01*
X149881865Y-93781812D01*
X150048402Y-93836997D01*
X150151190Y-93847498D01*
X150151195Y-93847498D01*
X151951205Y-93847498D01*
X151951210Y-93847498D01*
X152053998Y-93836997D01*
X152220535Y-93781812D01*
X152369856Y-93689710D01*
X152493912Y-93565654D01*
X152586014Y-93416333D01*
X152641199Y-93249796D01*
X152651700Y-93147008D01*
X152651700Y-91346988D01*
X152641199Y-91244200D01*
X152586014Y-91077663D01*
X152493912Y-90928342D01*
X152369856Y-90804286D01*
X152220535Y-90712184D01*
X152053998Y-90656999D01*
X152053996Y-90656998D01*
X151951217Y-90646498D01*
X151951210Y-90646498D01*
X151627699Y-90646498D01*
X151560660Y-90626813D01*
X151514905Y-90574009D01*
X151503699Y-90522498D01*
X151503699Y-85390201D01*
X151523384Y-85323162D01*
X151571403Y-85279716D01*
X151742044Y-85192771D01*
X151945855Y-85044694D01*
X152123992Y-84866557D01*
X152272069Y-84662746D01*
X152386440Y-84438280D01*
X152464289Y-84198686D01*
X152478881Y-84106552D01*
X152508810Y-84043419D01*
X152568121Y-84006487D01*
X152637984Y-84007485D01*
X152689035Y-84038270D01*
X158568181Y-89917416D01*
X158601666Y-89978739D01*
X158604500Y-90005097D01*
X158604500Y-91115938D01*
X158604501Y-91115955D01*
X158615000Y-91218733D01*
X158615001Y-91218736D01*
X158670185Y-91385268D01*
X158670187Y-91385273D01*
X158695692Y-91426623D01*
X158762288Y-91534593D01*
X158886344Y-91658649D01*
X159035666Y-91750751D01*
X159097440Y-91771221D01*
X159154884Y-91810992D01*
X159181707Y-91875508D01*
X159182053Y-91898656D01*
X159179077Y-91936461D01*
X159858554Y-92615937D01*
X159852339Y-92615937D01*
X159750606Y-92643196D01*
X159659394Y-92695857D01*
X159584920Y-92770331D01*
X159532259Y-92861543D01*
X159505000Y-92963276D01*
X159505000Y-92969490D01*
X158825524Y-92290014D01*
X158825523Y-92290014D01*
X158793139Y-92334588D01*
X158778272Y-92363766D01*
X158730296Y-92414561D01*
X158662475Y-92431354D01*
X158629472Y-92425399D01*
X158609425Y-92418885D01*
X158609418Y-92418884D01*
X158407317Y-92386874D01*
X158202683Y-92386874D01*
X158000582Y-92418883D01*
X157805968Y-92482118D01*
X157623644Y-92575017D01*
X157579077Y-92607397D01*
X157579077Y-92607398D01*
X158258554Y-93286874D01*
X158252339Y-93286874D01*
X158150606Y-93314133D01*
X158059394Y-93366794D01*
X157984920Y-93441268D01*
X157932259Y-93532480D01*
X157905000Y-93634213D01*
X157905000Y-93640427D01*
X157225524Y-92960951D01*
X157225523Y-92960951D01*
X157193143Y-93005518D01*
X157100244Y-93187842D01*
X157037009Y-93382456D01*
X157005000Y-93584556D01*
X157005000Y-93789191D01*
X157037009Y-93991291D01*
X157100244Y-94185905D01*
X157193141Y-94368224D01*
X157193147Y-94368233D01*
X157225523Y-94412795D01*
X157225524Y-94412796D01*
X157905000Y-93733320D01*
X157905000Y-93739535D01*
X157932259Y-93841268D01*
X157984920Y-93932480D01*
X158059394Y-94006954D01*
X158150606Y-94059615D01*
X158252339Y-94086874D01*
X158258553Y-94086874D01*
X157579076Y-94766348D01*
X157623650Y-94798733D01*
X157805968Y-94891629D01*
X158000582Y-94954864D01*
X158202683Y-94986874D01*
X158407317Y-94986874D01*
X158609417Y-94954864D01*
X158804031Y-94891629D01*
X158986349Y-94798733D01*
X159030921Y-94766348D01*
X158351447Y-94086874D01*
X158357661Y-94086874D01*
X158459394Y-94059615D01*
X158550606Y-94006954D01*
X158625080Y-93932480D01*
X158677741Y-93841268D01*
X158705000Y-93739535D01*
X158705000Y-93733320D01*
X159384474Y-94412795D01*
X159416857Y-94368226D01*
X159416858Y-94368224D01*
X159431724Y-94339048D01*
X159479698Y-94288251D01*
X159547518Y-94271455D01*
X159580530Y-94277411D01*
X159600582Y-94283926D01*
X159600586Y-94283927D01*
X159802683Y-94315937D01*
X160007317Y-94315937D01*
X160209417Y-94283927D01*
X160404031Y-94220692D01*
X160586349Y-94127796D01*
X160630921Y-94095411D01*
X159951446Y-93415937D01*
X159957661Y-93415937D01*
X160059394Y-93388678D01*
X160150606Y-93336017D01*
X160225080Y-93261543D01*
X160277741Y-93170331D01*
X160305000Y-93068598D01*
X160305000Y-93062384D01*
X160984474Y-93741858D01*
X161016859Y-93697286D01*
X161109755Y-93514968D01*
X161172990Y-93320354D01*
X161205000Y-93118254D01*
X161205000Y-92913619D01*
X161172990Y-92711519D01*
X161109754Y-92516902D01*
X161033652Y-92367543D01*
X161033651Y-92367542D01*
X161016859Y-92334587D01*
X160984474Y-92290014D01*
X160984474Y-92290013D01*
X160305000Y-92969488D01*
X160305000Y-92963276D01*
X160277741Y-92861543D01*
X160225080Y-92770331D01*
X160150606Y-92695857D01*
X160059394Y-92643196D01*
X159957661Y-92615937D01*
X159951446Y-92615937D01*
X160630921Y-91936462D01*
X160627946Y-91898656D01*
X160642310Y-91830278D01*
X160691361Y-91780521D01*
X160712555Y-91771222D01*
X160774334Y-91750751D01*
X160923656Y-91658649D01*
X161047712Y-91534593D01*
X161139814Y-91385271D01*
X161191102Y-91230495D01*
X161230875Y-91173050D01*
X161295391Y-91146227D01*
X161308808Y-91145499D01*
X162105002Y-91145499D01*
X162105008Y-91145499D01*
X162207797Y-91134999D01*
X162374334Y-91079814D01*
X162523656Y-90987712D01*
X162647712Y-90863656D01*
X162732577Y-90726067D01*
X180265001Y-90726067D01*
X180265001Y-90975134D01*
X180297509Y-91222064D01*
X180361974Y-91462650D01*
X180457284Y-91692749D01*
X180457289Y-91692760D01*
X180581814Y-91908442D01*
X180581820Y-91908450D01*
X180656401Y-92005646D01*
X181563959Y-91098088D01*
X181588979Y-91158491D01*
X181660113Y-91264952D01*
X181750650Y-91355489D01*
X181857111Y-91426623D01*
X181917512Y-91451642D01*
X181009954Y-92359199D01*
X181107151Y-92433781D01*
X181107159Y-92433787D01*
X181322841Y-92558312D01*
X181322852Y-92558317D01*
X181552951Y-92653627D01*
X181793537Y-92718092D01*
X182040467Y-92750601D01*
X182289535Y-92750601D01*
X182536464Y-92718092D01*
X182777050Y-92653627D01*
X183007149Y-92558317D01*
X183007160Y-92558312D01*
X183222856Y-92433779D01*
X183320046Y-92359201D01*
X183320046Y-92359198D01*
X182412489Y-91451642D01*
X182472891Y-91426623D01*
X182579352Y-91355489D01*
X182669889Y-91264952D01*
X182741023Y-91158491D01*
X182766042Y-91098089D01*
X183673598Y-92005646D01*
X183673601Y-92005646D01*
X183748179Y-91908456D01*
X183872712Y-91692760D01*
X183872717Y-91692749D01*
X183968027Y-91462650D01*
X184032492Y-91222064D01*
X184065001Y-90975134D01*
X184065001Y-90726067D01*
X184032492Y-90479137D01*
X183968027Y-90238551D01*
X183872717Y-90008452D01*
X183872712Y-90008441D01*
X183748187Y-89792759D01*
X183748181Y-89792751D01*
X183673599Y-89695554D01*
X182766042Y-90603111D01*
X182741023Y-90542711D01*
X182669889Y-90436250D01*
X182579352Y-90345713D01*
X182472891Y-90274579D01*
X182412488Y-90249558D01*
X183320046Y-89342001D01*
X183222850Y-89267420D01*
X183222842Y-89267414D01*
X183007160Y-89142889D01*
X183007149Y-89142884D01*
X182777050Y-89047574D01*
X182536464Y-88983109D01*
X182289535Y-88950601D01*
X182040467Y-88950601D01*
X181793537Y-88983109D01*
X181552951Y-89047574D01*
X181322852Y-89142884D01*
X181322848Y-89142886D01*
X181107144Y-89267424D01*
X181009954Y-89342000D01*
X181009954Y-89342001D01*
X181917512Y-90249559D01*
X181857111Y-90274579D01*
X181750650Y-90345713D01*
X181660113Y-90436250D01*
X181588979Y-90542711D01*
X181563959Y-90603112D01*
X180656401Y-89695554D01*
X180656400Y-89695554D01*
X180581824Y-89792744D01*
X180457286Y-90008448D01*
X180457284Y-90008452D01*
X180361974Y-90238551D01*
X180297509Y-90479137D01*
X180265001Y-90726067D01*
X162732577Y-90726067D01*
X162739814Y-90714334D01*
X162794999Y-90547797D01*
X162795523Y-90542662D01*
X162799166Y-90531386D01*
X162815431Y-90507510D01*
X162829199Y-90482102D01*
X162834864Y-90478984D01*
X162838504Y-90473642D01*
X162865096Y-90462349D01*
X162890414Y-90448419D01*
X162900492Y-90447319D01*
X162902815Y-90446333D01*
X162905428Y-90446780D01*
X162917163Y-90445500D01*
X162918331Y-90445500D01*
X162918347Y-90445501D01*
X162925943Y-90445501D01*
X163084054Y-90445501D01*
X163084057Y-90445501D01*
X163236785Y-90404577D01*
X163286904Y-90375639D01*
X163373716Y-90325520D01*
X163485520Y-90213716D01*
X163485520Y-90213714D01*
X163495728Y-90203507D01*
X163495730Y-90203504D01*
X167644169Y-86055064D01*
X167705490Y-86021581D01*
X167751246Y-86020274D01*
X167910514Y-86045500D01*
X167910519Y-86045500D01*
X168099486Y-86045500D01*
X168286118Y-86015940D01*
X168316753Y-86005986D01*
X168465832Y-85957547D01*
X168634199Y-85871760D01*
X168787073Y-85760690D01*
X168920690Y-85627073D01*
X169031760Y-85474199D01*
X169117547Y-85305832D01*
X169175940Y-85126118D01*
X169177109Y-85118739D01*
X169205500Y-84939486D01*
X169205500Y-84750513D01*
X169180274Y-84591248D01*
X169180978Y-84585796D01*
X169179059Y-84580643D01*
X169185407Y-84551517D01*
X169189228Y-84521955D01*
X169193079Y-84516325D01*
X169193940Y-84512377D01*
X169215098Y-84484137D01*
X169217455Y-84481781D01*
X169278792Y-84448323D01*
X169305099Y-84445500D01*
X171787625Y-84445500D01*
X171854664Y-84465185D01*
X171900419Y-84517989D01*
X171910363Y-84587147D01*
X171910098Y-84588898D01*
X171884500Y-84750513D01*
X171884500Y-84939486D01*
X171914059Y-85126118D01*
X171972454Y-85305836D01*
X172043617Y-85445500D01*
X172058240Y-85474199D01*
X172169310Y-85627073D01*
X172302927Y-85760690D01*
X172433386Y-85855474D01*
X172476051Y-85910803D01*
X172484500Y-85955791D01*
X172484500Y-86474902D01*
X172464815Y-86541941D01*
X172448181Y-86562583D01*
X171794202Y-87216561D01*
X171732879Y-87250046D01*
X171668203Y-87246811D01*
X171643584Y-87238812D01*
X171597952Y-87223985D01*
X171489086Y-87206742D01*
X171380222Y-87189500D01*
X171159778Y-87189500D01*
X171087201Y-87200995D01*
X170942047Y-87223985D01*
X170732396Y-87292103D01*
X170732393Y-87292104D01*
X170535974Y-87392187D01*
X170357641Y-87521752D01*
X170357636Y-87521756D01*
X170307075Y-87572317D01*
X170245752Y-87605801D01*
X170176060Y-87600816D01*
X170120127Y-87558945D01*
X170103213Y-87527968D01*
X170073354Y-87447913D01*
X170073350Y-87447906D01*
X169987190Y-87332812D01*
X169987187Y-87332809D01*
X169872093Y-87246649D01*
X169872086Y-87246645D01*
X169737379Y-87196403D01*
X169737372Y-87196401D01*
X169677844Y-87190000D01*
X168980000Y-87190000D01*
X168980000Y-88214722D01*
X168903694Y-88170667D01*
X168789244Y-88140000D01*
X168670756Y-88140000D01*
X168556306Y-88170667D01*
X168480000Y-88214722D01*
X168480000Y-87190000D01*
X167782155Y-87190000D01*
X167722627Y-87196401D01*
X167722620Y-87196403D01*
X167587913Y-87246645D01*
X167587906Y-87246649D01*
X167472812Y-87332809D01*
X167472809Y-87332812D01*
X167386649Y-87447906D01*
X167386645Y-87447913D01*
X167336403Y-87582620D01*
X167336401Y-87582627D01*
X167330000Y-87642155D01*
X167330000Y-88340000D01*
X168354722Y-88340000D01*
X168310667Y-88416306D01*
X168280000Y-88530756D01*
X168280000Y-88649244D01*
X168310667Y-88763694D01*
X168354722Y-88840000D01*
X167330000Y-88840000D01*
X167330000Y-89537844D01*
X167336401Y-89597372D01*
X167336403Y-89597379D01*
X167386645Y-89732086D01*
X167386649Y-89732093D01*
X167472809Y-89847187D01*
X167472812Y-89847190D01*
X167587906Y-89933350D01*
X167587913Y-89933354D01*
X167722620Y-89983596D01*
X167722627Y-89983598D01*
X167782155Y-89989999D01*
X167782172Y-89990000D01*
X168480000Y-89990000D01*
X168480000Y-88965277D01*
X168556306Y-89009333D01*
X168670756Y-89040000D01*
X168789244Y-89040000D01*
X168903694Y-89009333D01*
X168980000Y-88965277D01*
X168980000Y-89990000D01*
X169677828Y-89990000D01*
X169677844Y-89989999D01*
X169737372Y-89983598D01*
X169737379Y-89983596D01*
X169872086Y-89933354D01*
X169872093Y-89933350D01*
X169987187Y-89847190D01*
X169987190Y-89847187D01*
X170073350Y-89732093D01*
X170073354Y-89732086D01*
X170103213Y-89652031D01*
X170145084Y-89596097D01*
X170210548Y-89571680D01*
X170278821Y-89586531D01*
X170307076Y-89607683D01*
X170357636Y-89658243D01*
X170357641Y-89658247D01*
X170485112Y-89750859D01*
X170535978Y-89787815D01*
X170652501Y-89847187D01*
X170732393Y-89887895D01*
X170732396Y-89887896D01*
X170823252Y-89917416D01*
X170942049Y-89956015D01*
X171159778Y-89990500D01*
X171159779Y-89990500D01*
X171380221Y-89990500D01*
X171380222Y-89990500D01*
X171597951Y-89956015D01*
X171807606Y-89887895D01*
X172004022Y-89787815D01*
X172182365Y-89658242D01*
X172338242Y-89502365D01*
X172467815Y-89324022D01*
X172567895Y-89127606D01*
X172636015Y-88917951D01*
X172670500Y-88700222D01*
X172670500Y-88479778D01*
X172636015Y-88262049D01*
X172613188Y-88191794D01*
X172611193Y-88121953D01*
X172643436Y-88065797D01*
X173565520Y-87143716D01*
X173644577Y-87006784D01*
X173685501Y-86854057D01*
X173685501Y-86695942D01*
X173685501Y-86688347D01*
X173685500Y-86688329D01*
X173685500Y-85955791D01*
X173705185Y-85888752D01*
X173736612Y-85855475D01*
X173867073Y-85760690D01*
X174000690Y-85627073D01*
X174111760Y-85474199D01*
X174197547Y-85305832D01*
X174255940Y-85126118D01*
X174257109Y-85118739D01*
X174285500Y-84939486D01*
X174285500Y-84750513D01*
X174259902Y-84588898D01*
X174268856Y-84519605D01*
X174313852Y-84466153D01*
X174380604Y-84445513D01*
X174382375Y-84445500D01*
X179859303Y-84445500D01*
X179926342Y-84465185D01*
X179946984Y-84481819D01*
X180228182Y-84763017D01*
X180261667Y-84824340D01*
X180264501Y-84850698D01*
X180264501Y-87050616D01*
X180275001Y-87153396D01*
X180275002Y-87153398D01*
X180295932Y-87216561D01*
X180330187Y-87319936D01*
X180330188Y-87319938D01*
X180422287Y-87469252D01*
X180422290Y-87469256D01*
X180546345Y-87593311D01*
X180546349Y-87593314D01*
X180695663Y-87685413D01*
X180695665Y-87685414D01*
X180695667Y-87685415D01*
X180862204Y-87740600D01*
X180964993Y-87751101D01*
X180964998Y-87751101D01*
X183365004Y-87751101D01*
X183365009Y-87751101D01*
X183467798Y-87740600D01*
X183634335Y-87685415D01*
X183783656Y-87593312D01*
X183907712Y-87469256D01*
X183999815Y-87319935D01*
X184055000Y-87153398D01*
X184065501Y-87050609D01*
X184065501Y-84650593D01*
X184055000Y-84547804D01*
X183999815Y-84381267D01*
X183996360Y-84375666D01*
X183907714Y-84231949D01*
X183907711Y-84231945D01*
X183783656Y-84107890D01*
X183783652Y-84107887D01*
X183634338Y-84015788D01*
X183634336Y-84015787D01*
X183499059Y-83970961D01*
X183467798Y-83960602D01*
X183467796Y-83960601D01*
X183365016Y-83950101D01*
X183365009Y-83950101D01*
X181165098Y-83950101D01*
X181098059Y-83930416D01*
X181077417Y-83913782D01*
X180646990Y-83483355D01*
X180646988Y-83483352D01*
X180528117Y-83364481D01*
X180528116Y-83364480D01*
X180441304Y-83314360D01*
X180441304Y-83314359D01*
X180441300Y-83314358D01*
X180391185Y-83285423D01*
X180238457Y-83244499D01*
X180080343Y-83244499D01*
X180072747Y-83244499D01*
X180072731Y-83244500D01*
X169091670Y-83244500D01*
X169091654Y-83244499D01*
X169084058Y-83244499D01*
X168925943Y-83244499D01*
X168849579Y-83264961D01*
X168773214Y-83285423D01*
X168773209Y-83285426D01*
X168636290Y-83364475D01*
X168636286Y-83364478D01*
X168365829Y-83634934D01*
X168304506Y-83668418D01*
X168258750Y-83669725D01*
X168099486Y-83644500D01*
X168099481Y-83644500D01*
X167910519Y-83644500D01*
X167910514Y-83644500D01*
X167723881Y-83674059D01*
X167544163Y-83732454D01*
X167375800Y-83818240D01*
X167328049Y-83852934D01*
X167222927Y-83929310D01*
X167222925Y-83929312D01*
X167222924Y-83929312D01*
X167089312Y-84062924D01*
X167089312Y-84062925D01*
X167089310Y-84062927D01*
X167056642Y-84107890D01*
X166978240Y-84215800D01*
X166892454Y-84384163D01*
X166834059Y-84563881D01*
X166804500Y-84750513D01*
X166804500Y-84939486D01*
X166829725Y-85098751D01*
X166820770Y-85168045D01*
X166794933Y-85205830D01*
X162952971Y-89047792D01*
X162891648Y-89081277D01*
X162821956Y-89076293D01*
X162766023Y-89034421D01*
X162747585Y-88999119D01*
X162739814Y-88975666D01*
X162647712Y-88826344D01*
X162523656Y-88702288D01*
X162374334Y-88610186D01*
X162374331Y-88610185D01*
X162207795Y-88555000D01*
X162203533Y-88554088D01*
X162142102Y-88520801D01*
X162108419Y-88459586D01*
X162105500Y-88432837D01*
X162105500Y-84765944D01*
X162105499Y-84765937D01*
X162101372Y-84750533D01*
X162101366Y-84750517D01*
X162083503Y-84683848D01*
X162064577Y-84613215D01*
X162007673Y-84514655D01*
X161985520Y-84476284D01*
X161873716Y-84364480D01*
X161873713Y-84364478D01*
X160606155Y-83096920D01*
X160572670Y-83035597D01*
X160577654Y-82965905D01*
X160583352Y-82952943D01*
X160617544Y-82885838D01*
X160617545Y-82885836D01*
X160617547Y-82885832D01*
X160675940Y-82706118D01*
X160705500Y-82519486D01*
X160705500Y-82330513D01*
X160675940Y-82143881D01*
X160617545Y-81964163D01*
X160531759Y-81795800D01*
X160420690Y-81642927D01*
X160287073Y-81509310D01*
X160134199Y-81398240D01*
X159965836Y-81312454D01*
X159786118Y-81254059D01*
X159599486Y-81224500D01*
X159599481Y-81224500D01*
X159410519Y-81224500D01*
X159410514Y-81224500D01*
X159251248Y-81249725D01*
X159181954Y-81240770D01*
X159144169Y-81214933D01*
X156282118Y-78352882D01*
X158850669Y-78352882D01*
X158850670Y-78352883D01*
X158876059Y-78371329D01*
X159044362Y-78457085D01*
X159223997Y-78515451D01*
X159410553Y-78545000D01*
X159599447Y-78545000D01*
X159786002Y-78515451D01*
X159965637Y-78457085D01*
X160133937Y-78371331D01*
X160159328Y-78352883D01*
X160159328Y-78352882D01*
X159505001Y-77698554D01*
X159505000Y-77698554D01*
X158850669Y-78352882D01*
X156282118Y-78352882D01*
X155179788Y-77250552D01*
X158305000Y-77250552D01*
X158305000Y-77439447D01*
X158334548Y-77626002D01*
X158392914Y-77805637D01*
X158478666Y-77973933D01*
X158497116Y-77999328D01*
X159151446Y-77345000D01*
X159151446Y-77344999D01*
X159105369Y-77298922D01*
X159155000Y-77298922D01*
X159155000Y-77391078D01*
X159178852Y-77480095D01*
X159224930Y-77559905D01*
X159290095Y-77625070D01*
X159369905Y-77671148D01*
X159458922Y-77695000D01*
X159551078Y-77695000D01*
X159640095Y-77671148D01*
X159719905Y-77625070D01*
X159785070Y-77559905D01*
X159831148Y-77480095D01*
X159855000Y-77391078D01*
X159855000Y-77344999D01*
X159858554Y-77344999D01*
X159858554Y-77345000D01*
X160512882Y-77999328D01*
X160512883Y-77999328D01*
X160531331Y-77973937D01*
X160617085Y-77805637D01*
X160675451Y-77626002D01*
X160705000Y-77439447D01*
X160705000Y-77250552D01*
X160675451Y-77063997D01*
X160617085Y-76884362D01*
X160531329Y-76716059D01*
X160512883Y-76690670D01*
X160512882Y-76690669D01*
X159858554Y-77344999D01*
X159855000Y-77344999D01*
X159855000Y-77298922D01*
X159831148Y-77209905D01*
X159785070Y-77130095D01*
X159719905Y-77064930D01*
X159640095Y-77018852D01*
X159551078Y-76995000D01*
X159458922Y-76995000D01*
X159369905Y-77018852D01*
X159290095Y-77064930D01*
X159224930Y-77130095D01*
X159178852Y-77209905D01*
X159155000Y-77298922D01*
X159105369Y-77298922D01*
X158497116Y-76690669D01*
X158497116Y-76690670D01*
X158478669Y-76716060D01*
X158392914Y-76884362D01*
X158334548Y-77063997D01*
X158305000Y-77250552D01*
X155179788Y-77250552D01*
X154266352Y-76337116D01*
X158850669Y-76337116D01*
X159505000Y-76991446D01*
X159505001Y-76991446D01*
X160159328Y-76337116D01*
X160133933Y-76318666D01*
X159965637Y-76232914D01*
X159786002Y-76174548D01*
X159599447Y-76145000D01*
X159410553Y-76145000D01*
X159223997Y-76174548D01*
X159044362Y-76232914D01*
X158876060Y-76318669D01*
X158850670Y-76337116D01*
X158850669Y-76337116D01*
X154266352Y-76337116D01*
X152540018Y-74610782D01*
X152506533Y-74549459D01*
X152503699Y-74523101D01*
X152503699Y-72763896D01*
X152503698Y-72763883D01*
X152495353Y-72682203D01*
X152493198Y-72661103D01*
X152438013Y-72494566D01*
X152345911Y-72345245D01*
X152221855Y-72221189D01*
X152072534Y-72129087D01*
X151905997Y-72073902D01*
X151905995Y-72073901D01*
X151803216Y-72063401D01*
X151803209Y-72063401D01*
X150003189Y-72063401D01*
X150003181Y-72063401D01*
X149900402Y-72073901D01*
X149900401Y-72073902D01*
X149836732Y-72095000D01*
X149733866Y-72129086D01*
X149733861Y-72129088D01*
X149584541Y-72221190D01*
X149460488Y-72345243D01*
X149368386Y-72494563D01*
X149368385Y-72494566D01*
X149313200Y-72661103D01*
X149313200Y-72661104D01*
X149313199Y-72661104D01*
X149302699Y-72763883D01*
X149302699Y-72960500D01*
X149283014Y-73027539D01*
X149230210Y-73073294D01*
X149178699Y-73084500D01*
X144729500Y-73084500D01*
X144662461Y-73064815D01*
X144616706Y-73012011D01*
X144605500Y-72960500D01*
X144605500Y-72784995D01*
X144605499Y-72784982D01*
X144594999Y-72682203D01*
X144594999Y-72682202D01*
X144539814Y-72515665D01*
X144447712Y-72366344D01*
X144323656Y-72242288D01*
X144174335Y-72150186D01*
X144007798Y-72095001D01*
X144007796Y-72095000D01*
X143905017Y-72084500D01*
X143905010Y-72084500D01*
X142104990Y-72084500D01*
X142104982Y-72084500D01*
X142002203Y-72095000D01*
X142002202Y-72095001D01*
X141919669Y-72122349D01*
X141835667Y-72150185D01*
X141835662Y-72150187D01*
X141686342Y-72242289D01*
X141562289Y-72366342D01*
X141470187Y-72515662D01*
X141470186Y-72515665D01*
X141415001Y-72682202D01*
X141415001Y-72682203D01*
X141415000Y-72682203D01*
X141404500Y-72784982D01*
X122500500Y-72784982D01*
X122500500Y-70124500D01*
X122520185Y-70057461D01*
X122572989Y-70011706D01*
X122624500Y-70000500D01*
X189875500Y-70000500D01*
X189942539Y-70020185D01*
G37*
%TD.AperFunction*%
%TD*%
M02*
